<svg xmlns="http://www.w3.org/2000/svg" viewBox="0 0 1113.29 1069.24"><defs><style>.cls-1{opacity:0.3;}.cls-2{fill:#d9e2ff;}.cls-3{fill:#86a2d2;}.cls-4{fill:#6689bc;}.cls-5{fill:#37639a;}.cls-15,.cls-27,.cls-28,.cls-6{fill:none;}.cls-6{stroke:#8ab7ce;stroke-width:1px;}.cls-15,.cls-28,.cls-6{stroke-linecap:round;}.cls-27,.cls-6{stroke-miterlimit:10;}.cls-7{fill:#adc9f2;}.cls-8{fill:#2479ce;}.cls-9{fill:#7791af;}.cls-10{fill:#618bb5;}.cls-11{fill:#b8c5e2;opacity:0.5;}.cls-12{fill:#4e6d84;}.cls-13{fill:#66e29e;}.cls-14{fill:#80aeff;}.cls-15,.cls-27{stroke:#000;}.cls-15,.cls-28{stroke-linejoin:round;}.cls-16{fill:#679af4;}.cls-17{fill:#e1f4ff;}.cls-18{fill:#e0935f;}.cls-19{fill:#f2b78b;}.cls-20{fill:#030303;}.cls-21{fill:#003a61;}.cls-22{fill:#00527c;}.cls-23{fill:#a7d4c6;}.cls-24{fill:#4da78b;}.cls-25{fill:#958ed6;}.cls-26{fill:#f78c57;}.cls-28{stroke:#c4b4a9;stroke-width:0.28px;}</style></defs><title>development concept</title><g id="Layer_11" data-name="Layer 11"><g class="cls-1"><path class="cls-2" d="M620.83,981.33c87.15,0,159.64-17.41,187.39-48.47s60.9-85.15,150.57-73.31,155.48-205.66,9.78-235.92S798.42,594.14,728.7,497.31c-77.82-108.08-313.48-194.49-432.9-53.1-122.12,144.6,37.06,259-61.09,296.12S134.77,895,197.34,930.28,368.9,895.52,449.9,940.76C510.63,974.67,589.09,981.33,620.83,981.33Z" transform="translate(-12 0.5)"/><path class="cls-3" d="M809,596.28l20.62-10a11.24,11.24,0,1,0-1.19-2.42l-18.18,8.86,19.32-56.08,20.61-10a11.3,11.3,0,1,0-1.18-2.43L830.83,533l19.29-56a11.28,11.28,0,1,0-2.55-.88l-12.84,37.27-8.87-18.19a11.24,11.24,0,1,0-2.42,1.19l10,20.61-19.32,56.08-8.86-18.19a11.3,11.3,0,1,0-2.43,1.18l10,20.62L793.6,632.77l-8.87-18.19a11.27,11.27,0,1,0-2.42,1.18l10.05,20.62L773,692.46l-8.87-18.19a11.3,11.3,0,1,0-2.43,1.18l10,20.61-25.5,74,2.56.88,19-55.29,20.61-10a11.3,11.3,0,1,0-1.18-2.43l-18.19,8.87L788.46,656l20.61-10.05a11.27,11.27,0,1,0-1.18-2.42l-18.19,8.86Z" transform="translate(-12 0.5)"/><rect class="cls-3" x="321.55" y="487.59" width="2.7" height="290.12" transform="translate(-325.47 317.65) rotate(-36.59)"/><path class="cls-3" d="M212.59,484.05c-6.82,5.06,4.48,29.78,25.38,34.19C239.8,497,219.41,479,212.59,484.05Z" transform="translate(-12 0.5)"/><path class="cls-3" d="M250.52,535.15c19.61-11.27,22.92-39.87,14.39-42.74S241.73,514.31,250.52,535.15Z" transform="translate(-12 0.5)"/><path class="cls-3" d="M273.42,566c23.55-13.53,27.51-47.86,17.28-51.31S262.86,541,273.42,566Z" transform="translate(-12 0.5)"/><path class="cls-3" d="M391.5,725.05c28.33-16.28,33.1-57.58,20.79-61.73S378.79,695,391.5,725.05Z" transform="translate(-12 0.5)"/><path class="cls-3" d="M300.44,602.39c28.35-16.3,33.12-57.64,20.8-61.79S287.72,572.26,300.44,602.39Z" transform="translate(-12 0.5)"/><path class="cls-3" d="M362.25,685.65c31.53-18.12,36.84-64.09,23.14-68.71S348.1,652.15,362.25,685.65Z" transform="translate(-12 0.5)"/><path class="cls-3" d="M330.27,642.57c32.57-18.73,38.05-66.22,23.9-71S315.65,608,330.27,642.57Z" transform="translate(-12 0.5)"/><path class="cls-3" d="M205.45,536.55c.28,9,28.61,14.11,45.07-1.4C233.12,520.7,205.17,527.57,205.45,536.55Z" transform="translate(-12 0.5)"/><path class="cls-3" d="M219.3,567.68c.34,10.79,34.35,16.93,54.12-1.69C252.53,548.64,219,556.89,219.3,567.68Z" transform="translate(-12 0.5)"/><path class="cls-3" d="M326.39,727.08c.41,13,41.32,20.38,65.11-2C366.36,704.18,326,714.1,326.39,727.08Z" transform="translate(-12 0.5)"/><path class="cls-3" d="M235.27,604.42c.41,13,41.36,20.39,65.17-2C275.28,581.49,234.87,591.42,235.27,604.42Z" transform="translate(-12 0.5)"/><path class="cls-3" d="M289.78,687.91c.45,14.45,46,22.68,72.47-2.26C334.27,662.42,289.33,673.46,289.78,687.91Z" transform="translate(-12 0.5)"/><path class="cls-3" d="M255.4,644.9c.47,14.93,47.51,23.43,74.87-2.33C301.36,618.56,254.94,630,255.4,644.9Z" transform="translate(-12 0.5)"/><path class="cls-3" d="M1054.3,766.1l-.51-4.43A617.4,617.4,0,0,0,717.73,913.3l2.54,2.86A613.14,613.14,0,0,1,1054.3,766.1Z" transform="translate(-12 0.5)"/><path class="cls-3" d="M1052.08,762.54l-1.6,1.78,2,1.35c19.66,13.3,64-3.63,66.5-4q3.15-1.11,6.34-2.19-3.19-1.07-6.4-2.08C1117.29,756.17,1068.8,743.46,1052.08,762.54Z" transform="translate(-12 0.5)"/><path class="cls-3" d="M756.24,884.19l-2,1.54,1.17,1.56c30.09,36.16,97.71,34,100.18,35.75,1.63.06,3.25.14,4.87.22-1-1.18-2-2.35-3-3.53C855.92,916.88,799.22,852,756.24,884.19Z" transform="translate(-12 0.5)"/><path class="cls-3" d="M821.61,841l-2.19,1.26,1,1.76c22.55,36.44,82.38,42.1,84.47,43.73,1.63.26,3.26.52,4.89.8q-1.29-2-2.6-4C906,881.84,862.27,817.87,821.61,841Z" transform="translate(-12 0.5)"/><path class="cls-3" d="M888.49,807.85l-2.32,1c.27.64.53,1.27.79,1.92,15.71,34.8,67.06,45.86,68.81,47.32,1.62.43,3.25.88,4.87,1.34l-2.21-4.33C957.57,852.58,925.51,792.38,888.49,807.85Z" transform="translate(-12 0.5)"/><path class="cls-3" d="M955.59,784l-2.42.71c.19.69.39,1.38.58,2.06,9.85,31.56,52.35,45.72,53.79,47l4.82,1.85q-.9-2.31-1.81-4.64C1010,828.76,987.94,774.68,955.59,784Z" transform="translate(-12 0.5)"/><path class="cls-3" d="M1015.17,769.85l-2.49.47.39,2.15c5.44,26.88,39.16,41.61,40.33,42.65l4.74,2.28c-.47-1.62-1-3.24-1.44-4.87C1056.33,810.65,1042.06,764.91,1015.17,769.85Z" transform="translate(-12 0.5)"/><path class="cls-3" d="M771.07,770.71c-.46-1.49-.91-3-1.36-4.47-1.15,1.71-2.28,3.43-3.41,5.14-3.41,2.78-44.46,74.86-13.28,112.77l1.17,1.56,2-1.54C796.47,854.81,771.86,775,771.07,770.71Z" transform="translate(-12 0.5)"/><path class="cls-3" d="M845.09,741.85c-.3-1.57-.61-3.14-.91-4.72l-3.86,4.74c-3.06,2.16-45.17,60.72-21.91,98.58l1,1.75,2.19-1.26C859.89,819.78,845.43,745.69,845.09,741.85Z" transform="translate(-12 0.5)"/><path class="cls-3" d="M917.39,723.8l-.45-4.9c-1.43,1.43-2.84,2.87-4.25,4.32-2.66,1.63-43.47,47.76-27.33,83.66l.8,1.92,2.32-1C923.57,793.58,917.4,727.11,917.39,723.8Z" transform="translate(-12 0.5)"/><path class="cls-3" d="M986.78,715.27c0-1.68,0-3.35,0-5-1.54,1.3-3.07,2.59-4.59,3.89-2.23,1.2-39.72,36.17-29.63,68.51.19.69.39,1.37.58,2.06l2.43-.71C986.48,775.39,986.58,718,986.78,715.27Z" transform="translate(-12 0.5)"/><path class="cls-3" d="M1045.14,716c.13-1.7.26-3.4.4-5.1l-4.83,3.51c-1.77.86-34,26.32-28.43,53.71l.39,2.16,2.49-.47C1041.05,765.27,1044.83,718.21,1045.14,716Z" transform="translate(-12 0.5)"/><path class="cls-4" d="M386.71,867c-33.42-9.74-62.43-34.37-82.57-69.5-18-31.25-44.83-36.1-69.15-38.4-17.52-1.74-35.17-2.49-52.11-11.78-19-10.3-29.36-22.41-39-33.19-11.38-12.54-22.16-23.6-45.55-23.87-42.52.08-63-8.8-73.69-18.1-8.33-7.19-13-16.67-12.57-26.91.31-8,4.72-15.15,13-20.26,17.84-11.22,54.16-11.7,86.92,1.06,27.77,10.85,43.28,7.85,64.06,4.68,14.89-2.17,32.17-4.28,56,1.49,19.53,4.82,30.82,17.18,41,29.08,8.58,10,17,20.39,30.12,27.65,13.68,7.63,27,8.88,44.21,11.31,20.62,3,47.15,7.64,80.52,30.82,25.65,17.95,41.61,41.78,45.77,65.59,4.14,23.45-3.61,44.63-19.4,58.59C436.37,871.09,411.75,874.14,386.71,867Z" transform="translate(-12 0.5)"/><path class="cls-5" d="M82.24,652a2.26,2.26,0,0,1,2.7-1.74A624.3,624.3,0,0,1,506.63,920.15l-3.19,2.13A620.24,620.24,0,0,0,84.29,654.49,2.28,2.28,0,0,1,82.24,652Z" transform="translate(-12 0.5)"/><path class="cls-4" d="M895.27,813.71c-1.69-35.83-17.21-82.36,19.41-88.56,40.79-6.91,95.13-26.7,87.91-72-4.36-27.44-16.4-55.37,8.47-65.63,76.81-31.72,73-77.53,51-96.84s-67.87-17.27-89.55,63c-7,26-36.25,17.59-64,16.75-45.88-1.38-58.59,55-60.25,96.37-1.48,37.12-49.61,27.65-85.36,30.54-60.41,4.87-38.6,125.4-12.86,148.05S898.13,874.24,895.27,813.71Z" transform="translate(-12 0.5)"/><path class="cls-5" d="M948.05,666.65l.26,4.07C951.39,670.52,951.15,666.45,948.05,666.65Z" transform="translate(-12 0.5)"/><path class="cls-5" d="M842.29,807.43a2.06,2.06,0,1,0-.26-4.07h0l-55.45,3.54L903.89,673.56l44.42-2.84-.16-2.39-.1-1.68-40.35,2.58,109.5-124.46,25.5-1.63c3.08-.2,2.84-4.27-.26-4.07L1021,540.44l26.26-29.84a2,2,0,0,0-3.07-2.7L1018,537.74l-1.37-21.43a2.06,2.06,0,1,0-4.07.27l1.63,25.5L904.64,666.53l-2.58-40.34h0a2.06,2.06,0,1,0-4.07.26h0l2.84,44.42L783.51,804.21,780,748.76h0a2.06,2.06,0,1,0-4.08.26h0l3.81,59.52L718,878.7l1.53,1.35L721,881.4l61.72-70.16,59.53-3.81Z" transform="translate(-12 0.5)"/><polygon class="cls-5" points="936.31 671.22 937.41 668.79 936.05 667.15 936.31 671.22"/><path class="cls-4" d="M347.15,541c-4.94.61-11.12,1.29-15.11-.48a21.35,21.35,0,0,1-11.52-26.33c3.53-10.43,14.6-16.17,25.17-11.87,4.17,1.69,8.35,7,11.53,11.44,2.78,3.84,10.42,16.76,28.63,28.06A555.33,555.33,0,0,0,359.28,480c-22.59-8.92-37.24-2.9-41.65-1.86-4.81,1.26-10.85,2.75-15.05,1.52a21.56,21.56,0,0,1-15-24.68c2.07-10.85,12.27-18,23.35-15.14,4.37,1.14,9.25,5.91,13,9.87,3.28,3.46,12.62,15.31,32.2,24.12q-10.08-19.39-21.7-38c-13.89-22.05-30.27-27.74-34.66-29.8-4.91-2.28-11-5.09-14-8.84-7.43-9.46-7.21-22.64,1-29.78s21.83-4.87,29.92,5.41c3.2,4,4.58,11,5.47,16.58.81,5.21,2,22.22,15.83,44.21h0q11.7,18.74,21.86,38.29c4-21.38-2.94-36.61-4.61-41.24-2-5.47-4.46-12.32-3.9-17,1.41-11.86,11.6-19,23.35-15.14s20.08,17.59,18.11,29.75c-.76,4.81-5.08,9.43-8.6,13-3.35,3.22-15.24,13.2-21.16,36.88a556.39,556.39,0,0,1,26.77,62.25c6.81-20.61,2-36.56,1-41.34-1.2-5.65-2.74-12.74-1.55-17.31,3-11.51,14.08-17.25,25.17-11.87s17.49,20,13.89,31.74c-1.4,4.65-6.3,8.64-10.26,11.7-3.76,2.75-16.89,11-25.93,33.65a558.88,558.88,0,0,1,18.22,65.22c9.49-19.53,6.88-36,6.49-40.84-.43-5.76-1-13,.79-17.33,4.53-11,16.26-15.2,26.53-8.42s14.65,22.11,9.52,33.28c-2,4.42-7.39,7.73-11.73,10.23-4.09,2.23-18.2,8.68-30.18,29.92a557.72,557.72,0,0,1,9.38,67.31c12-18.19,11.6-34.88,11.87-39.78.34-5.78.73-13,3.09-17.12,5.95-10.31,18.14-12.92,27.41-4.8s11.59,23.94,5,34.37c-2.58,4.13-8.35,6.69-13,8.6-4.35,1.67-19.19,6.17-33.89,25.73a559.34,559.34,0,0,1-.48,79.15l-4.18-.32a555.49,555.49,0,0,0,.47-78.56c-17.31-17.13-33.15-17.29-37.62-18.07-4.91-.73-11.05-1.72-14.44-4.49a21.42,21.42,0,0,1-4.15-28.5c6.15-9.13,18.35-11.74,27.41-4.8,3.57,2.74,6.19,9,8.09,14.1,1.67,4.46,5.63,19,20.21,34.81a555.53,555.53,0,0,0-9.3-66.8c-19.43-14.56-35.14-12.6-39.67-12.77-5-.06-11.19-.21-14.91-2.49a21.32,21.32,0,0,1-7.9-27.6c4.9-9.85,16.63-14.06,26.53-8.42,3.91,2.23,7.33,8.09,9.9,12.86,2.24,4.18,8.08,18,24.63,31.64a551.91,551.91,0,0,0-18.08-64.73C367,536.51,351.66,540.54,347.15,541Z" transform="translate(-12 0.5)"/></g></g><g id="Layer_10" data-name="Layer 10"><line class="cls-6" x1="298.39" y1="930.99" x2="322.11" y2="913.12"/><polygon class="cls-7" points="1047.88 1054.5 165.35 1054.5 337.21 920.64 876.03 920.64 1047.88 1054.5"/><polygon class="cls-8" points="392.2 933.19 362.86 933.19 373.57 924.78 401.61 924.78 392.2 933.19"/><polygon class="cls-8" points="375.44 948.8 342.97 948.8 355.45 939.01 386.38 939.01 375.44 948.8"/><polygon class="cls-8" points="424.93 948.8 392.45 948.8 402.59 939.01 433.52 939.01 424.93 948.8"/><polygon class="cls-8" points="474.41 948.8 441.94 948.8 449.73 939.01 480.66 939.01 474.41 948.8"/><polygon class="cls-8" points="523.89 948.8 491.42 948.8 496.87 939.01 527.8 939.01 523.89 948.8"/><polygon class="cls-8" points="573.37 948.8 540.9 948.8 544.01 939.01 574.94 939.01 573.37 948.8"/><polygon class="cls-8" points="622.85 948.8 590.38 948.8 591.15 939.01 622.08 939.01 622.85 948.8"/><polygon class="cls-8" points="672.33 948.8 639.86 948.8 638.29 939.01 669.22 939.01 672.33 948.8"/><polygon class="cls-8" points="721.82 948.8 689.34 948.8 685.43 939.01 716.36 939.01 721.82 948.8"/><polygon class="cls-8" points="771.3 948.8 738.83 948.8 732.57 939.01 763.5 939.01 771.3 948.8"/><polygon class="cls-8" points="820.78 948.8 788.31 948.8 779.71 939.01 810.64 939.01 820.78 948.8"/><polygon class="cls-8" points="870.26 948.8 837.79 948.8 826.85 939.01 857.78 939.01 870.26 948.8"/><polygon class="cls-8" points="357.15 965.18 322.11 965.18 336.58 953.82 369.84 953.82 357.15 965.18"/><polygon class="cls-8" points="410.55 965.18 375.51 965.18 387.26 953.82 420.52 953.82 410.55 965.18"/><polygon class="cls-8" points="463.94 965.18 428.9 965.18 437.94 953.82 471.2 953.82 463.94 965.18"/><polygon class="cls-8" points="517.34 965.18 482.3 965.18 488.63 953.82 521.88 953.82 517.34 965.18"/><polygon class="cls-8" points="570.74 965.18 535.7 965.18 539.31 953.82 572.57 953.82 570.74 965.18"/><polygon class="cls-8" points="624.14 965.18 589.1 965.18 589.99 953.82 623.25 953.82 624.14 965.18"/><polygon class="cls-8" points="677.53 965.18 642.49 965.18 640.67 953.82 673.93 953.82 677.53 965.18"/><polygon class="cls-8" points="730.93 965.18 695.89 965.18 691.35 953.82 724.61 953.82 730.93 965.18"/><polygon class="cls-8" points="784.33 965.18 749.29 965.18 742.03 953.82 775.29 953.82 784.33 965.18"/><polygon class="cls-8" points="837.73 965.18 802.68 965.18 792.71 953.82 825.97 953.82 837.73 965.18"/><polygon class="cls-8" points="891.13 965.18 856.08 965.18 843.39 953.82 876.65 953.82 891.13 965.18"/><polygon class="cls-8" points="334.58 985.39 296.37 985.39 313.5 971.94 349.61 971.94 334.58 985.39"/><polygon class="cls-8" points="392.81 985.39 354.6 985.39 368.52 971.94 404.62 971.94 392.81 985.39"/><polygon class="cls-8" points="741.27 985.39 412.83 985.39 423.53 971.94 733.83 971.94 741.27 985.39"/><polygon class="cls-8" points="800.41 985.39 762.2 985.39 753.6 971.94 789.71 971.94 800.41 985.39"/><polygon class="cls-8" points="858.63 985.39 820.42 985.39 808.62 971.94 844.72 971.94 858.63 985.39"/><polygon class="cls-8" points="916.86 985.39 878.65 985.39 863.63 971.94 899.73 971.94 916.86 985.39"/><polygon class="cls-8" points="451.56 933.19 422.23 933.19 430.33 924.78 458.37 924.78 451.56 933.19"/><polygon class="cls-8" points="493.47 933.19 464.14 933.19 470.39 924.78 498.44 924.78 493.47 933.19"/><polygon class="cls-8" points="535.38 933.19 506.04 933.19 510.46 924.78 538.5 924.78 535.38 933.19"/><polygon class="cls-8" points="577.28 933.19 547.95 933.19 550.52 924.78 578.57 924.78 577.28 933.19"/><polygon class="cls-8" points="619.19 933.19 589.85 933.19 590.59 924.78 618.64 924.78 619.19 933.19"/><polygon class="cls-8" points="661.09 933.19 631.76 933.19 630.66 924.78 658.7 924.78 661.09 933.19"/><polygon class="cls-8" points="704.4 933.19 675.06 933.19 672.06 924.78 700.1 924.78 704.4 933.19"/><polygon class="cls-8" points="770.75 933.19 741.41 933.19 735.5 924.78 763.54 924.78 770.75 933.19"/><polygon class="cls-8" points="810.56 933.19 781.22 933.19 773.56 924.78 801.6 924.78 810.56 933.19"/><polygon class="cls-8" points="850.37 933.19 821.03 933.19 811.62 924.78 839.66 924.78 850.37 933.19"/><polygon class="cls-8" points="707.23 1036.35 506.01 1036.35 521.88 998.91 691.35 998.91 707.23 1036.35"/><path class="cls-9" d="M165.35,1054.5h882.54a0,0,0,0,1,0,0v9.63a5.12,5.12,0,0,1-5.12,5.12H170.46a5.12,5.12,0,0,1-5.12-5.12v-9.63A0,0,0,0,1,165.35,1054.5Z"/><g id="Layer_14" data-name="Layer 14"><rect class="cls-10" x="445.17" y="478.71" width="345.66" height="536.03" transform="translate(-140.72 1365.23) rotate(-90)"/></g><rect class="cls-11" x="468.8" y="510.32" width="297.4" height="486.13" transform="translate(-147.88 1371.39) rotate(-90)"/><rect class="cls-11" x="474.3" y="519.31" width="286.4" height="468.15" transform="translate(-147.88 1371.39) rotate(-90)"/><rect class="cls-12" x="362.44" y="605.19" width="486.83" height="298.15"/><path class="cls-13" d="M513.66,669.53H404.48a4.18,4.18,0,0,1-4.06-4.27h0a4.18,4.18,0,0,1,4.06-4.28H513.66a4.18,4.18,0,0,1,4.06,4.28h0A4.18,4.18,0,0,1,513.66,669.53Z" transform="translate(-12 0.5)"/><path class="cls-13" d="M642.11,669.53H532.92a4.18,4.18,0,0,1-4.06-4.27h0a4.18,4.18,0,0,1,4.06-4.28H642.11a4.18,4.18,0,0,1,4.06,4.28h0A4.18,4.18,0,0,1,642.11,669.53Z" transform="translate(-12 0.5)"/><path class="cls-14" d="M693.77,669.53H663.82a4.18,4.18,0,0,1-4.06-4.27h0a4.18,4.18,0,0,1,4.06-4.28h29.95a4.18,4.18,0,0,1,4.06,4.28h0A4.18,4.18,0,0,1,693.77,669.53Z" transform="translate(-12 0.5)"/><path class="cls-13" d="M548.72,750.51H404.48a4.18,4.18,0,0,1-4.06-4.28h0a4.19,4.19,0,0,1,4.06-4.28H548.72a4.19,4.19,0,0,1,4.06,4.28h0A4.18,4.18,0,0,1,548.72,750.51Z" transform="translate(-12 0.5)"/><path class="cls-14" d="M656.81,750.51h-86a4.18,4.18,0,0,1-4.06-4.28h0a4.19,4.19,0,0,1,4.06-4.28h86a4.19,4.19,0,0,1,4.06,4.28h0A4.18,4.18,0,0,1,656.81,750.51Z" transform="translate(-12 0.5)"/><path class="cls-14" d="M457.24,696.53H404.48a4.19,4.19,0,0,1-4.06-4.28h0a4.18,4.18,0,0,1,4.06-4.28h52.76a4.18,4.18,0,0,1,4.05,4.28h0A4.18,4.18,0,0,1,457.24,696.53Z" transform="translate(-12 0.5)"/><path class="cls-13" d="M565.33,696.53H472.05a4.19,4.19,0,0,1-4.06-4.28h0a4.18,4.18,0,0,1,4.06-4.28h93.28a4.18,4.18,0,0,1,4.06,4.28h0A4.19,4.19,0,0,1,565.33,696.53Z" transform="translate(-12 0.5)"/><path class="cls-13" d="M500.66,642.54H404.48a4.18,4.18,0,0,1-4.06-4.28h0a4.19,4.19,0,0,1,4.06-4.28h96.18a4.19,4.19,0,0,1,4.06,4.28h0A4.18,4.18,0,0,1,500.66,642.54Z" transform="translate(-12 0.5)"/><path class="cls-14" d="M745,642.54H520.89a4.18,4.18,0,0,1-4.06-4.28h0a4.18,4.18,0,0,1,4.06-4.28H745a4.19,4.19,0,0,1,4.06,4.28h0A4.18,4.18,0,0,1,745,642.54Z" transform="translate(-12 0.5)"/><path class="cls-14" d="M693.77,723.52H645.94a4.19,4.19,0,0,1-4.06-4.28h0a4.19,4.19,0,0,1,4.06-4.28h47.83a4.19,4.19,0,0,1,4.06,4.28h0A4.19,4.19,0,0,1,693.77,723.52Z" transform="translate(-12 0.5)"/><path class="cls-13" d="M628.62,723.52H404.48a4.19,4.19,0,0,1-4.06-4.28h0a4.19,4.19,0,0,1,4.06-4.28H628.62a4.19,4.19,0,0,1,4.06,4.28h0A4.19,4.19,0,0,1,628.62,723.52Z" transform="translate(-12 0.5)"/><path class="cls-13" d="M513.66,804.5H404.48a4.19,4.19,0,0,1-4.06-4.28h0a4.18,4.18,0,0,1,4.06-4.28H513.66a4.18,4.18,0,0,1,4.06,4.28h0A4.18,4.18,0,0,1,513.66,804.5Z" transform="translate(-12 0.5)"/><path class="cls-13" d="M642.11,804.5H532.92a4.19,4.19,0,0,1-4.06-4.28h0a4.18,4.18,0,0,1,4.06-4.28H642.11a4.18,4.18,0,0,1,4.06,4.28h0A4.19,4.19,0,0,1,642.11,804.5Z" transform="translate(-12 0.5)"/><path class="cls-14" d="M693.77,804.5H663.82a4.19,4.19,0,0,1-4.06-4.28h0a4.18,4.18,0,0,1,4.06-4.28h29.95a4.18,4.18,0,0,1,4.06,4.28h0A4.19,4.19,0,0,1,693.77,804.5Z" transform="translate(-12 0.5)"/><path class="cls-13" d="M548.72,885.47H404.48a4.18,4.18,0,0,1-4.06-4.28h0a4.18,4.18,0,0,1,4.06-4.27H548.72a4.18,4.18,0,0,1,4.06,4.27h0A4.18,4.18,0,0,1,548.72,885.47Z" transform="translate(-12 0.5)"/><path class="cls-14" d="M656.81,885.47h-86a4.18,4.18,0,0,1-4.06-4.28h0a4.18,4.18,0,0,1,4.06-4.27h86a4.18,4.18,0,0,1,4.06,4.27h0A4.18,4.18,0,0,1,656.81,885.47Z" transform="translate(-12 0.5)"/><path class="cls-14" d="M457.24,831.49H404.48a4.19,4.19,0,0,1-4.06-4.28h0a4.19,4.19,0,0,1,4.06-4.28h52.76a4.18,4.18,0,0,1,4.05,4.28h0A4.18,4.18,0,0,1,457.24,831.49Z" transform="translate(-12 0.5)"/><path class="cls-13" d="M565.33,831.49H472.05a4.19,4.19,0,0,1-4.06-4.28h0a4.19,4.19,0,0,1,4.06-4.28h93.28a4.19,4.19,0,0,1,4.06,4.28h0A4.19,4.19,0,0,1,565.33,831.49Z" transform="translate(-12 0.5)"/><path class="cls-13" d="M500.66,777.5H404.48a4.18,4.18,0,0,1-4.06-4.28h0a4.18,4.18,0,0,1,4.06-4.27h96.18a4.18,4.18,0,0,1,4.06,4.27h0A4.18,4.18,0,0,1,500.66,777.5Z" transform="translate(-12 0.5)"/><rect class="cls-14" x="504.83" y="769.45" width="209.66" height="8.56" rx="1.57"/><path class="cls-14" d="M693.77,858.48H645.94a4.18,4.18,0,0,1-4.06-4.28h0a4.19,4.19,0,0,1,4.06-4.28h47.83a4.19,4.19,0,0,1,4.06,4.28h0A4.18,4.18,0,0,1,693.77,858.48Z" transform="translate(-12 0.5)"/><path class="cls-13" d="M628.62,858.48H404.48a4.18,4.18,0,0,1-4.06-4.28h0a4.19,4.19,0,0,1,4.06-4.28H628.62a4.19,4.19,0,0,1,4.06,4.28h0A4.18,4.18,0,0,1,628.62,858.48Z" transform="translate(-12 0.5)"/></g><g id="Layer_2" data-name="Layer 2"><line class="cls-15" x1="467.69" y1="296.91" x2="473.55" y2="308.13"/><rect class="cls-16" x="338.36" y="323.89" width="178.02" height="160.19" rx="11.43" transform="translate(-106.99 134.32) rotate(-16.04)"/><path class="cls-17" d="M391.93,397.27A11.83,11.83,0,0,0,381.67,396c-8,2.31-12.09,10.55-9.5,19.55s10.39,13.82,18.09,11.61a12,12,0,0,0,8.46-8l10.75,4.07c-2.37,6.87-8.42,11.49-15,13.39-15.05,4.33-28.86-2.4-33.31-17.86s3.68-28.5,18.74-32.83c5.38-1.55,12.72-1.66,18.32,2.41Z" transform="translate(-12 0.5)"/><path class="cls-17" d="M409.27,403.94l14.37-4.13-4.13-14.38L428.1,383l4.13,14.37,14.37-4.13,2.47,8.58-14.37,4.13,4.13,14.38-8.58,2.47-4.14-14.38-14.37,4.14Z" transform="translate(-12 0.5)"/><path class="cls-17" d="M454.65,390.9,469,386.76l-4.13-14.37,8.58-2.47,4.13,14.38L492,380.16l2.46,8.59-14.37,4.13,4.13,14.37-8.58,2.47-4.13-14.37-14.38,4.13Z" transform="translate(-12 0.5)"/><polyline class="cls-15" points="467.69 0.5 467.69 296.29 462.8 315.14"/><circle cx="462.8" cy="315.46" r="2.36"/></g><g id="Layer_9" data-name="Layer 9"><path class="cls-18" d="M550,415a12,12,0,0,0,3.94,7.2s.1,2.84-3.43,4.67-5.52-.74-5.52-.74L543.62,420S546.29,415.46,550,415Z" transform="translate(-12 0.5)"/><path class="cls-19" d="M546.85,405.48c1.24,4.56,2.25,5.54,2.25,5.54s1.87-2.42,3.5-.85.69,3.95-1.65,4.9c-3.64,6.22-9.94,6-10.88,4.54-3.27-5.17-.17-14.55-.17-14.55A34.85,34.85,0,0,0,546.85,405.48Z" transform="translate(-12 0.5)"/><path class="cls-19" d="M512.15,384.26c2.8-.82,2.87,4.94,4.21,6.89-.08-1.5,1.21-4.3,2.21-3.62.63.43-.29,3-.09,5.07a7.38,7.38,0,0,1-1.11,3.61L521,406.78l-4.7,1.38-2.87-10.77a15,15,0,0,1-3.39-5.41C509.06,388.54,509.25,385.11,512.15,384.26Z" transform="translate(-12 0.5)"/><path class="cls-19" d="M534.7,567.56a5.15,5.15,0,0,0,.75-3.1h5.09l-.27,2.79-2.76,3.14-4.75,1.35-2.39-1.62S533.8,568.68,534.7,567.56Z" transform="translate(-12 0.5)"/><path class="cls-20" d="M530.37,570.12a10.95,10.95,0,0,0,9.9-2.87,6.87,6.87,0,0,1,.73,3.48,7.64,7.64,0,0,1-.41,2.64h-1.48v-1.92c-2.09.51-4.75,1.92-7.68,1.92C524.7,573.37,524.94,571.18,530.37,570.12Z" transform="translate(-12 0.5)"/><path class="cls-19" d="M552,567.56a5.15,5.15,0,0,0,.75-3.1h5.09l-.26,2.79-2.77,3.14-4.75,1.35-2.39-1.62S551.13,568.68,552,567.56Z" transform="translate(-12 0.5)"/><path class="cls-20" d="M547.7,570.12a11,11,0,0,0,9.91-2.87,6.87,6.87,0,0,1,.73,3.48,7.88,7.88,0,0,1-.41,2.64h-1.49v-1.92c-2.08.51-4.75,1.92-7.67,1.92C542,573.37,542.27,571.18,547.7,570.12Z" transform="translate(-12 0.5)"/><path class="cls-21" d="M564,480.93c12.09,17.33-4.28,32.41-5.34,48.92-.23,11.28.77,34.61.77,34.61H551.5c-2-13.58-5.07-26.75-5.9-40.59s-.1-29-.66-42.94Z" transform="translate(-12 0.5)"/><path class="cls-22" d="M542,480.93h19.11c10.9,17-11.88,31.16-17.19,47.28-2.12,12.41-2,23.72-1.89,36.25h-7.92c-2.3-15.27-4.42-29.58-1.71-44.34S542,480.93,542,480.93Z" transform="translate(-12 0.5)"/><path class="cls-23" d="M545,426.12s4,.53,9-3.93c5.88,5.15,8.61,11.22,5.21,29.41A46.53,46.53,0,0,0,564,480.93H542c0-5.68-4-25.09-4.73-27.37-1.74-5.65-4.27-8.44-3.19-13.42C535.42,433.82,545,426.12,545,426.12Z" transform="translate(-12 0.5)"/><path class="cls-20" d="M547.52,400.48c3.66.51,6.48,1.85,7.5,5.56,1.52,5.56.47,6.72,1.52,9.77,1.28,3.69,3.62,7.28,3.32,10.57-.7,7.66,5.4,10.24,3,11.29-1.2.53-4.86-1.22-6.36-5s-3.53-4.35-4.68-8.11c-1-3.33-.53-6.46-1.79-8.2-3.45-4.72-5.62-10.86-10.17-11.32C537.47,404.81,539,399.27,547.52,400.48Z" transform="translate(-12 0.5)"/><path class="cls-24" d="M545.52,439l.09,0a.63.63,0,0,1,.38.22.62.62,0,0,1,.13.48.61.61,0,0,1-.26.43.58.58,0,0,1-.45.1,31.64,31.64,0,0,1-9.64-4.08c.23-.36.46-.72.7-1.07A31.08,31.08,0,0,0,545.52,439Z" transform="translate(-12 0.5)"/><path class="cls-24" d="M547.89,428.37l0,0a.64.64,0,0,1,.23.31.62.62,0,0,1-.09.57h0a.49.49,0,0,1-.2.18.61.61,0,0,1-.6,0c-1.09-.75-2.31-1.49-3.58-2.21.43-.38.77-.67,1-.86C545.82,427,546.9,427.69,547.89,428.37Z" transform="translate(-12 0.5)"/><path class="cls-23" d="M532.36,420.34c6.36,4.39,22.47,9.6,19.76,16.61-3.14,8.14-20.12-3-25.17-8.34-7-7.31-11.79-18.41-13.76-29l5.68-2.56C520.53,404.53,527.44,416.93,532.36,420.34Z" transform="translate(-12 0.5)"/></g><g id="Layer_4" data-name="Layer 4"><rect class="cls-25" x="742.06" y="396.13" width="158.57" height="158.57" rx="11.43" transform="translate(155.26 -211.69) rotate(16.37)"/><path class="cls-17" d="M772.49,440.1l15.24,4.48c8.52,2.5,14.79,7.3,11.93,17s-10.24,10.65-18.87,8.12l-6.61-1.94-4.7,16-9.05-2.66Zm3.93,20,6,1.77c3.19.93,6.7.77,7.82-3.06,1.25-4.23-2.87-6.07-6.35-7.09l-4.64-1.36Z" transform="translate(-12 0.5)"/><path class="cls-17" d="M809,450.82l9,2.66-4.49,15.3,17.56,5.16,4.49-15.3,9,2.66-12.06,41-9-2.66,5.21-17.74-17.56-5.16L806,494.52l-9-2.66Z" transform="translate(-12 0.5)"/><path class="cls-17" d="M853,463.75l15.25,4.47c8.52,2.51,14.79,7.31,11.93,17s-10.24,10.65-18.88,8.12l-6.6-1.95-4.7,16-9-2.65Zm3.94,20,6,1.77c3.19.94,6.7.77,7.82-3.05,1.25-4.23-2.87-6.07-6.35-7.09l-4.64-1.37Z" transform="translate(-12 0.5)"/></g><g id="Layer_1" data-name="Layer 1"><rect class="cls-26" x="526.01" y="203.82" width="182.19" height="157.8" rx="11.43"/><path class="cls-17" d="M585,287.89c0,6.87-1.78,13.38-11.85,13.38-5.88,0-10.19-2.73-11.39-8.66l7.5-1.84a3.82,3.82,0,0,0,3.67,3.26c3.84,0,3.89-4.25,3.89-7V263.17H585Z" transform="translate(-12 0.5)"/><path class="cls-17" d="M604.22,263.17H611l16.17,37.15h-9.24l-3.2-7.87H600.29l-3.1,7.87h-9ZM607.37,274l-4.51,11.54h9.08Z" transform="translate(-12 0.5)"/><path class="cls-17" d="M624,263.17h9.34l9.19,24.35h.11l9.34-24.35h8.76l-15.32,37.15h-6.56Z" transform="translate(-12 0.5)"/><path class="cls-17" d="M673.56,263.17h6.78l16.16,37.15h-9.24l-3.2-7.87H669.63l-3.1,7.87h-9ZM676.72,274l-4.52,11.54h9.08Z" transform="translate(-12 0.5)"/><line class="cls-27" x1="608.75" y1="0.5" x2="608.75" y2="177.75"/><polyline class="cls-27" points="533.57 208.29 608.75 177.75 697.56 208.29"/><circle cx="533.57" cy="208.29" r="2.36"/><circle cx="697.56" cy="208.29" r="2.36"/><path class="cls-28" d="M593.05,541.22c.66,0,1.38.32,2,.35a.83.83,0,0,1,.42.08c.28.16.34.56.63.69.5.23,1-.57,1.54-.38.19.06.31.25.47.38a1.89,1.89,0,0,0,1.62.08,5.52,5.52,0,0,1,4.46.45,4.51,4.51,0,0,1,1.66,2.79A13.55,13.55,0,0,1,606,549" transform="translate(-12 0.5)"/></g></svg>